HIERARCHY
ROOT Hips
{
	OFFSET -3.958830 18.904000 13.208200
	CHANNELS 6 Xposition Yposition Zposition Zrotation Yrotation Xrotation 
	JOINT LHipJoint
	{
		OFFSET 0.000000 0.000000 0.000000
		CHANNELS 3 Zrotation Yrotation Xrotation
		JOINT LeftUpLeg
		{
			OFFSET 1.800000 -1.400000 0.085000
			CHANNELS 3 Zrotation Yrotation Xrotation
			JOINT LeftLeg
			{
				OFFSET 2.215000 -6.000000 0.000000
				CHANNELS 3 Zrotation Yrotation Xrotation
				JOINT LeftFoot
				{
					OFFSET 2.500000 -6.900000 0.000000
					CHANNELS 3 Zrotation Yrotation Xrotation
					JOINT LeftToeBase
					{
						OFFSET 0.200000 -0.500000 1.950000
						CHANNELS 3 Zrotation Yrotation Xrotation
						End Site
						{
							OFFSET 0.000000 0.000000 0.000000
						}
					}
				}
			}
		}
	}
	JOINT RHipJoint
	{
		OFFSET 0.000000 0.000000 0.000000
		CHANNELS 3 Zrotation Yrotation Xrotation
		JOINT RightUpLeg
		{
			OFFSET -1.800000 -1.400000 0.085000
			CHANNELS 3 Zrotation Yrotation Xrotation
			JOINT RightLeg
			{
				OFFSET -2.215000 -6.000000 0.000000
				CHANNELS 3 Zrotation Yrotation Xrotation
				JOINT RightFoot
				{
					OFFSET -2.500000 -6.900000 0.000000
					CHANNELS 3 Zrotation Yrotation Xrotation
					JOINT RightToeBase
					{
						OFFSET -0.200000 -0.500000 1.950000
						CHANNELS 3 Zrotation Yrotation Xrotation
						End Site
						{
							OFFSET 0.000000 0.000000 0.000000
						}
					}
				}
			}
		}
	}
	JOINT LowerBack
	{
		OFFSET 0.000000 0.000000 0.000000
		CHANNELS 3 Zrotation Yrotation Xrotation
		JOINT Spine
		{
			OFFSET -0.087000 1.940000 -0.288900
			CHANNELS 3 Zrotation Yrotation Xrotation
			JOINT Spine1
			{
				OFFSET 0.000000 1.950000 0.060000
				CHANNELS 3 Zrotation Yrotation Xrotation
				JOINT Neck
				{
					OFFSET 0.000000 0.000000 0.000000
					CHANNELS 3 Zrotation Yrotation Xrotation
					JOINT Neck1
					{
						OFFSET 0.000000 1.600000 0.340000
						CHANNELS 3 Zrotation Yrotation Xrotation
						JOINT Head
						{
							OFFSET 0.000000 1.667000 -0.240000
							CHANNELS 3 Zrotation Yrotation Xrotation
							End Site
							{
								OFFSET 0.000000 0.000000 0.000000
							}
						}
					}
				}
				JOINT LeftShoulder
				{
					OFFSET 0.000000 0.000000 0.000000
					CHANNELS 3 Zrotation Yrotation Xrotation
					JOINT LeftArm
					{
						OFFSET 2.700000 1.550000 -0.730000
						CHANNELS 3 Zrotation Yrotation Xrotation
						JOINT LeftForeArm
						{
							OFFSET 5.450000 0.000000 0.000000
							CHANNELS 3 Zrotation Yrotation Xrotation
							JOINT LeftHand
							{
								OFFSET 3.450000 0.000000 0.000000
								CHANNELS 3 Zrotation Yrotation Xrotation
								JOINT LeftHandIndex1
								{
									OFFSET 0.750000 0.000000 0.000000
									CHANNELS 3 Zrotation Yrotation Xrotation
									End Site
									{
										OFFSET 0.000000 0.000000 0.000000
									}
								}
							}
						}
					}
				}
				JOINT RightShoulder
				{
					OFFSET 0.000000 0.000000 0.000000
					CHANNELS 3 Zrotation Yrotation Xrotation
					JOINT RightArm
					{
						OFFSET -2.700000 1.550000 -0.730000
						CHANNELS 3 Zrotation Yrotation Xrotation
						JOINT RightForeArm
						{
							OFFSET -5.450000 0.000000 0.000000
							CHANNELS 3 Zrotation Yrotation Xrotation
							JOINT RightHand
							{
								OFFSET -3.450000 0.000000 0.000000
								CHANNELS 3 Zrotation Yrotation Xrotation
								JOINT RightHandIndex1
								{
									OFFSET -0.750000 0.000000 0.000000
									CHANNELS 3 Zrotation Yrotation Xrotation
									End Site
									{
										OFFSET 0.000000 0.000000 0.000000
									}
								}
							}
						}
					}
				}
			}
		}
	}
}
MOTION
Frames: 9
Frame Time: 0.016667
0.210830 17.229590 -1.752910 19.900725 -35.155284 -28.668480 -15.981867 12.464597 5.871731 9.649920 9.134841 -70.268179 6.729167 9.316031 26.736898 0.410104 6.449424 2.011101 0.951020 0.656200 1.021330 17.911884 -9.118162 0.780350 -24.887787 9.917473 0.086639 7.778222 -8.116220 37.922098 -1.045352 -6.540999 1.843502 0.042660 -0.561110 0.397080 -1.390825 -5.358521 -9.037713 -16.612567 21.521403 67.601758 9.396298 15.038436 8.946423 2.452518 -14.073128 -17.799693 -22.901254 10.589636 34.717920 -9.100670 2.376270 -30.915380 -14.160582 -14.804367 9.221207 -55.755377 22.474358 -29.755921 -87.643129 -5.042967 -15.343948 -2.784918 3.439464 0.592200 -0.534820 0.672490 0.174950 10.952275 44.073695 10.568746 18.761829 30.709379 -17.971126 -138.428257 29.062089 -108.258534 2.564870 -1.659673 0.425290 -0.202150 -0.638410 -0.036810 
0.269850 17.243130 -1.642840 21.543036 -37.428316 -28.515210 -16.056544 11.985356 6.344273 13.663882 8.814887 -70.803343 6.501444 11.583489 42.470067 0.740211 8.641464 1.281858 0.951980 0.649790 1.030740 18.005229 -8.731194 0.770919 -25.808305 11.993524 -6.383737 7.652078 -8.580391 45.201109 -1.168000 -7.099922 1.623291 0.004850 -0.603420 0.408300 -1.370199 -5.084209 -9.319827 -18.221994 22.933530 65.919039 11.807481 14.093297 8.574083 1.066535 -13.937631 -18.581734 -23.853226 11.563744 36.404489 -9.016210 2.603740 -32.163300 -14.637514 -15.900489 10.180132 -57.258221 23.484842 -30.128390 -86.906645 -9.701518 -10.776331 -2.725034 3.472527 0.625160 -0.577790 0.709780 0.165850 14.744719 42.889420 11.701254 22.872657 29.281923 -17.203969 -141.052462 35.975948 -125.849780 2.629465 -1.713102 0.453720 -0.233160 -0.648110 -0.037400 
0.330260 17.275970 -1.510010 22.933893 -41.424757 -29.972244 -16.025612 11.776839 6.418920 17.410527 9.727675 -66.771869 3.288199 15.433926 52.905611 1.183817 10.421064 0.731282 0.972470 0.680030 1.016220 18.129438 -8.519160 0.914135 -24.611061 13.893091 -11.351171 5.569501 -7.746761 51.458454 -1.331279 -7.439864 1.526326 -0.034900 -0.677280 0.395690 -1.396648 -4.894442 -9.500622 -19.160939 24.497315 66.001325 13.454922 13.441699 6.606492 0.632713 -14.982422 -20.520258 -29.057172 14.465158 39.525444 -7.627710 2.150870 -34.757350 -15.846084 -17.488814 10.685116 -60.168146 23.648511 -31.751520 -82.821978 -12.411119 -8.309917 -2.610501 3.471988 0.682190 -0.687480 0.784330 0.178300 18.113858 42.900286 13.518010 27.767222 25.827793 -17.675082 -144.932694 41.814628 -142.942839 2.694709 -1.807979 0.507720 -0.244740 -0.671900 -0.005060 
0.398340 17.259960 -1.364210 21.239456 -44.152219 -28.865775 -16.010051 11.460542 6.512695 20.055600 8.676839 -63.541044 1.247386 19.047136 62.466850 1.618491 11.951669 0.310473 0.977950 0.666420 1.017120 18.212374 -8.198347 1.317855 -21.487249 15.478114 -15.715445 4.790785 -7.947743 57.041974 -1.546541 -7.989244 1.374340 -0.058050 -0.747700 0.344790 -1.581171 -4.569959 -9.684236 -16.958677 22.445340 66.627344 13.436668 12.022552 4.092208 0.831171 -15.397345 -22.441475 -34.718100 17.655558 42.765259 -6.774970 1.677310 -35.477010 -17.795341 -19.715686 11.113151 -62.486485 23.056756 -33.074838 -76.521686 -15.959376 -5.572409 -2.515387 3.440918 0.759340 -0.788560 0.817990 0.166260 20.716950 42.843128 14.974481 33.025155 19.865428 -19.471044 -150.099250 49.135554 -161.506950 2.686096 -1.928243 0.501570 -0.239360 -0.675020 -0.016410 
0.464610 17.213040 -1.197190 17.025865 -45.743559 -25.110769 -16.084348 11.233372 6.587387 21.448591 6.410123 -61.881164 -0.015630 21.407078 69.088553 2.065094 12.966598 0.092602 1.001500 0.717090 1.009260 18.209534 -7.659859 1.809488 -17.172826 16.483165 -19.561542 4.764846 -9.091517 61.418480 -1.830348 -8.613689 1.241146 -0.105870 -0.800180 0.386220 -1.619430 -4.749654 -9.894608 -14.550245 19.538116 66.958103 13.649775 10.356024 -0.310606 1.550055 -14.305590 -21.784137 -36.807160 19.955381 45.517085 -9.656820 2.829400 -36.828610 -19.925428 -19.697629 10.830033 -63.466385 21.838978 -32.613416 -68.055339 -16.481114 -4.774961 -2.490428 3.445861 0.766290 -0.831730 0.901440 0.202840 21.301624 40.313372 14.343797 39.658002 13.029088 -22.719379 -161.117401 59.411517 176.574560 2.619230 -1.960523 0.589750 -0.277120 -0.712230 0.027390 
0.528660 17.120710 -1.001720 11.773766 -45.494429 -20.301816 -16.132821 11.158645 6.511020 21.659090 3.118523 -59.417385 -1.127824 22.770787 73.504576 2.321104 13.714725 -0.067236 0.959010 0.672260 0.978980 18.155712 -7.288245 2.345667 -13.467873 16.736715 -23.057584 5.745179 -11.077979 63.793620 -2.020859 -9.128144 1.125203 -0.152560 -0.804180 0.376780 -1.787113 -4.894998 -9.977463 -10.918578 14.782554 67.253056 12.851285 8.497158 -5.499557 2.262078 -13.150745 -20.345131 -39.387731 21.579727 47.463924 -11.026920 3.140960 -37.224900 -22.430920 -18.845721 10.031752 -61.779103 20.197171 -30.031980 -60.159336 -13.300963 -5.916502 -2.537541 3.370020 0.799300 -0.852680 0.916360 0.187080 22.244298 36.644126 13.112503 44.966748 5.713660 -27.672153 170.488527 70.073858 141.812199 2.651339 -1.499945 0.586650 -0.253800 -0.674450 0.027240 
0.558800 17.000810 -0.826180 6.060911 -44.263011 -14.582534 -16.177311 11.408451 6.190310 20.928253 0.056889 -55.289783 -2.497261 22.330331 72.916057 2.321011 13.654003 -0.065878 0.920320 0.606500 0.998210 18.054099 -7.036973 2.862635 -9.095143 16.336368 -26.216415 7.207168 -12.538332 62.719964 -2.064516 -9.110504 1.138683 -0.202540 -0.835250 0.386600 -1.796968 -5.404918 -9.968547 -8.408676 10.422203 65.513450 12.313395 6.700471 -9.202231 3.593784 -11.625088 -18.922151 -37.834558 21.507845 50.056875 -13.477760 5.173610 -36.332090 -23.400998 -17.036941 8.937604 -61.898210 17.975615 -27.442162 -49.903057 -11.847272 -5.473038 -2.582023 3.319859 0.832440 -0.850600 0.924330 0.142580 20.433463 32.356722 11.855136 50.388140 1.586259 -31.349547 119.950262 74.587415 83.824591 3.613171 0.466050 0.577840 -0.289520 -0.644630 -0.018420 
0.570830 16.845850 -0.652090 1.028715 -43.962140 -9.229772 -16.177691 11.714623 5.828214 20.933769 -1.061005 -50.332611 -5.472935 21.762727 67.805624 2.222471 13.009588 0.102436 0.893270 0.576460 0.973260 17.990352 -6.903411 3.308935 -4.129309 16.287070 -28.306493 7.909997 -12.404485 59.424892 -1.968007 -8.545223 1.339699 -0.242980 -0.817140 0.403110 -1.860917 -5.801561 -9.910443 -5.871486 6.236824 63.135697 10.917064 5.291910 -13.031218 4.466468 -10.833175 -16.775054 -36.763157 21.634056 49.733584 -14.227580 7.588580 -34.497040 -25.075830 -12.435848 6.765908 -62.476550 16.607334 -24.159012 -37.544616 -10.770101 -4.291863 -2.642735 3.280476 0.802870 -0.819020 0.908550 0.153190 19.989895 26.273716 10.874235 52.609956 -0.311303 -22.237857 72.273807 76.131526 38.212925 3.329519 -1.453347 0.594270 -0.334180 -0.644780 -0.015740 
0.558980 16.661500 -0.474060 -4.232525 -44.513254 -3.147804 -16.211057 11.902590 5.551559 22.433366 -0.783690 -45.916769 -8.906555 21.345526 61.198447 2.001810 12.275592 0.290521 0.836050 0.477960 0.939590 17.929284 -6.734984 3.701243 1.073185 16.637004 -29.388179 8.523194 -11.833030 55.443744 -1.803646 -7.816821 1.585590 -0.276280 -0.764280 0.393480 -1.928756 -6.110771 -9.860723 -2.945644 2.152948 59.552858 8.854452 4.305327 -16.566183 5.261773 -10.822549 -14.286155 -36.352934 21.958885 47.478457 -14.199550 10.259230 -31.938780 -25.490509 -6.265438 4.312772 -63.652828 15.558128 -20.594794 -26.171378 -8.560225 -3.324698 -2.742757 3.197045 0.802580 -0.771110 0.841260 0.146960 18.498669 19.459752 8.675953 54.561701 -0.584895 -21.708537 48.448226 60.140437 18.457712 2.937312 -1.730729 0.538700 -0.356260 -0.615300 -0.049550 
